<?xml version="1.0" encoding="iso-8859-1"?>
<!-- Generator: Adobe Illustrator 16.0.0, SVG Export Plug-In . SVG Version: 6.00 Build 0)  -->
<!DOCTYPE svg PUBLIC "-//W3C//DTD SVG 1.1//EN" "http://www.w3.org/Graphics/SVG/1.1/DTD/svg11.dtd">
<svg version="1.1" id="Capa_1" xmlns="http://www.w3.org/2000/svg" xmlns:xlink="http://www.w3.org/1999/xlink" x="0px" y="0px"
	 width="334.987px" height="334.987px" viewBox="0 0 334.987 334.987" style="enable-background:new 0 0 334.987 334.987;"
	 xml:space="preserve">
<g>
	<g>
		<path d="M321.963,0H13.023C5.826,0,0,5.825,0,13.023v308.941c0,7.198,5.825,13.023,13.023,13.023h308.94
			c7.198,0,13.023-5.825,13.023-13.023V13.023C334.987,5.825,329.162,0,321.963,0z M308.94,308.941H26.048V26.047h282.893
			L308.94,308.941L308.94,308.941z"/>
		<path d="M96.395,216.855l71.1-71.098l71.109,71.098c2.545,2.543,5.877,3.815,9.209,3.815s6.666-1.272,9.208-3.815
			c5.089-5.088,5.089-13.328,0-18.416l-80.319-80.306c-5.086-5.089-13.328-5.089-18.416,0l-80.308,80.306
			c-5.087,5.088-5.087,13.328,0,18.416C83.065,221.944,91.308,221.944,96.395,216.855z"/>
	</g>
</g>
<g>
</g>
<g>
</g>
<g>
</g>
<g>
</g>
<g>
</g>
<g>
</g>
<g>
</g>
<g>
</g>
<g>
</g>
<g>
</g>
<g>
</g>
<g>
</g>
<g>
</g>
<g>
</g>
<g>
</g>
</svg>
